<?xml version="1.0" encoding="UTF-8" standalone="no"?>
<!DOCTYPE svg PUBLIC "-//W3C//DTD SVG 1.1//EN" "http://www.w3.org/Graphics/SVG/1.1/DTD/svg11.dtd">
<svg version="1.1" xmlns="http://www.w3.org/2000/svg" xmlns:xlink="http://www.w3.org/1999/xlink" preserveAspectRatio="xMidYMid meet" viewBox="0 0 640 640" width="64" height="64"><defs><path d="M640 0C640 0 640 0 640 0C640 382.01 640 594.24 640 636.68C640 636.68 640 636.68 640 636.68C256 636.68 42.67 636.68 0 636.68C0 636.68 0 636.68 0 636.68C0 254.67 0 42.45 0 0C0 0 0 0 0 0C384 0 597.33 0 640 0Z" id="a4XgoDSqTz"></path><path d="M453.33 613.33C482.79 613.33 506.67 589.46 506.67 560C506.67 512 506.67 128 506.67 80C506.67 50.54 482.79 26.67 453.33 26.67C426.67 26.67 213.33 26.67 186.67 26.67C157.21 26.67 133.33 50.54 133.33 80C133.33 128 133.33 512 133.33 560C133.33 589.46 157.21 613.33 186.67 613.33C240 613.33 400 613.33 453.33 613.33ZM186.67 80L453.33 80L453.33 560L186.67 560L186.67 80ZM320 533.33C305.27 533.33 293.33 521.39 293.33 506.67C293.33 491.94 305.27 480 320 480C334.73 480 346.67 491.94 346.67 506.67C346.67 521.39 334.73 533.33 320 533.33Z" id="b8jStvnDC"></path></defs><g><g><g><use xlink:href="#a4XgoDSqTz" opacity="1" fill="#000000" fill-opacity="0"></use><g><use xlink:href="#a4XgoDSqTz" opacity="1" fill-opacity="0" stroke="#000000" stroke-width="1" stroke-opacity="0"></use></g></g><g><use xlink:href="#b8jStvnDC" opacity="1" fill="#46b814" fill-opacity="1"></use><g><use xlink:href="#b8jStvnDC" opacity="1" fill-opacity="0" stroke="#000000" stroke-width="1" stroke-opacity="0"></use></g></g></g></g></svg>