<?xml version="1.0" encoding="UTF-8" standalone="no"?>
<!DOCTYPE svg PUBLIC "-//W3C//DTD SVG 1.1//EN" "http://www.w3.org/Graphics/SVG/1.1/DTD/svg11.dtd">
<svg version="1.1" xmlns="http://www.w3.org/2000/svg" xmlns:xlink="http://www.w3.org/1999/xlink" preserveAspectRatio="xMidYMid meet" viewBox="0 0 640 640" width="64" height="64"><defs><path d="M320 144.01C223.6 144.01 145.45 221.38 145.45 316.83C145.55 412.24 223.64 489.56 320 489.65C416.4 489.65 494.55 412.28 494.55 316.83C494.55 221.38 416.4 144.01 320 144.01ZM320 432.05C255.73 432.05 203.63 380.46 203.63 316.83C203.63 253.2 255.73 201.62 320 201.62C384.27 201.62 436.37 253.2 436.37 316.83C436.37 380.46 384.27 432.05 320 432.05ZM320 0C336.07 0 349.09 12.9 349.09 28.8C349.09 31.68 349.09 54.72 349.09 57.6C349.09 73.51 336.07 86.41 320 86.41C303.93 86.41 290.91 73.51 290.91 57.6C290.91 51.85 290.91 31.68 290.91 28.8C290.91 12.9 303.93 0 320 0ZM349.09 604.87C349.09 620.77 336.07 633.67 320 633.67C303.93 633.67 290.91 620.77 290.91 604.87C290.91 601.99 290.91 578.95 290.91 576.06C290.91 560.15 303.93 547.26 320 547.26C336.07 547.26 349.09 560.15 349.09 576.06C349.09 578.95 349.09 601.99 349.09 604.87ZM505.14 92.8C516.69 81.75 535.11 82.07 546.27 93.51C557.16 104.67 557.16 122.37 546.27 133.53C544.22 135.57 527.77 151.85 525.7 153.9C514.35 165.14 495.93 165.14 484.57 153.9C473.21 142.64 473.21 124.41 484.57 113.16C486.63 111.12 503.08 94.83 505.14 92.8ZM134.86 540.86C123.31 551.91 104.89 551.6 93.73 540.16C82.84 528.99 82.84 511.3 93.73 500.14C95.78 498.1 112.23 481.81 114.3 479.77C125.65 468.53 144.07 468.53 155.43 479.77C166.79 491.02 166.79 509.26 155.43 520.5C153.37 522.54 136.92 538.83 134.86 540.86ZM581.82 345.64C565.75 345.64 552.73 332.74 552.73 316.83C552.73 300.92 565.75 288.03 581.82 288.03C584.73 288.03 608 288.03 610.92 288.03C626.97 288.03 640 300.92 640 316.83C640 332.74 626.97 345.64 610.92 345.64C608 345.64 584.73 345.64 581.82 345.64ZM58.18 288.03C74.25 288.03 87.27 300.92 87.27 316.83C87.27 332.74 74.25 345.64 58.18 345.64C55.27 345.64 32 345.64 29.08 345.64C13.03 345.64 0 332.74 0 316.83C0 300.92 13.03 288.03 29.08 288.03C32 288.03 55.27 288.03 58.18 288.03ZM546.99 540.86C535.83 552.31 517.41 552.62 505.85 541.57C505.61 541.34 505.37 541.11 505.14 540.86C503.08 538.83 486.63 522.54 484.57 520.5C473.41 509.06 473.73 490.82 485.29 479.77C496.55 468.99 514.43 468.99 525.7 479.77C529.82 483.84 544.22 498.1 546.27 500.14C557.83 511.19 558.15 529.42 546.99 540.86ZM94.44 92.8C105.72 82.02 123.59 82.02 134.86 92.8C136.92 94.83 153.37 111.12 155.43 113.16C166.99 124.21 167.3 142.45 156.14 153.9C144.98 165.33 126.57 165.65 115.02 154.6C114.76 154.37 114.52 154.13 114.3 153.9C110.18 149.82 97.84 137.6 93.73 133.53C82.57 122.09 82.89 103.85 94.44 92.8Z" id="b2ZENUspQ"></path><path d="M320 144.01C223.6 144.01 145.45 221.38 145.45 316.83C145.55 412.24 223.64 489.56 320 489.65C416.4 489.65 494.55 412.28 494.55 316.83C494.55 221.38 416.4 144.01 320 144.01ZM320 432.05C255.73 432.05 203.63 380.46 203.63 316.83C203.63 253.2 255.73 201.62 320 201.62C384.27 201.62 436.37 253.2 436.37 316.83C436.37 380.46 384.27 432.05 320 432.05ZM320 0C336.07 0 349.09 12.9 349.09 28.8C349.09 31.68 349.09 54.72 349.09 57.6C349.09 73.51 336.07 86.41 320 86.41C303.93 86.41 290.91 73.51 290.91 57.6C290.91 51.85 290.91 31.68 290.91 28.8C290.91 12.9 303.93 0 320 0ZM349.09 604.87C349.09 620.77 336.07 633.67 320 633.67C303.93 633.67 290.91 620.77 290.91 604.87C290.91 601.99 290.91 578.95 290.91 576.06C290.91 560.15 303.93 547.26 320 547.26C336.07 547.26 349.09 560.15 349.09 576.06C349.09 578.95 349.09 601.99 349.09 604.87ZM505.14 92.8C516.69 81.75 535.11 82.07 546.27 93.51C557.16 104.67 557.16 122.37 546.27 133.53C544.22 135.57 527.77 151.85 525.7 153.9C514.35 165.14 495.93 165.14 484.57 153.9C473.21 142.64 473.21 124.41 484.57 113.16C486.63 111.12 503.08 94.83 505.14 92.8ZM134.86 540.86C123.31 551.91 104.89 551.6 93.73 540.16C82.84 528.99 82.84 511.3 93.73 500.14C95.78 498.1 112.23 481.81 114.3 479.77C125.65 468.53 144.07 468.53 155.43 479.77C166.79 491.02 166.79 509.26 155.43 520.5C153.37 522.54 136.92 538.83 134.86 540.86ZM581.82 345.64C565.75 345.64 552.73 332.74 552.73 316.83C552.73 300.92 565.75 288.03 581.82 288.03C584.73 288.03 608 288.03 610.92 288.03C626.97 288.03 640 300.92 640 316.83C640 332.74 626.97 345.64 610.92 345.64C608 345.64 584.73 345.64 581.82 345.64ZM58.18 288.03C74.25 288.03 87.27 300.92 87.27 316.83C87.27 332.74 74.25 345.64 58.18 345.64C55.27 345.64 32 345.64 29.08 345.64C13.03 345.64 0 332.74 0 316.83C0 300.92 13.03 288.03 29.08 288.03C32 288.03 55.27 288.03 58.18 288.03ZM546.99 540.86C535.83 552.31 517.41 552.62 505.85 541.57C505.61 541.34 505.37 541.11 505.14 540.86C503.08 538.83 486.63 522.54 484.57 520.5C473.41 509.06 473.73 490.82 485.29 479.77C496.55 468.99 514.43 468.99 525.7 479.77C529.82 483.84 544.22 498.1 546.27 500.14C557.83 511.19 558.15 529.42 546.99 540.86ZM94.44 92.8C105.72 82.02 123.59 82.02 134.86 92.8C136.92 94.83 153.37 111.12 155.43 113.16C166.99 124.21 167.3 142.45 156.14 153.9C144.98 165.33 126.57 165.65 115.02 154.6C114.76 154.37 114.52 154.13 114.3 153.9C110.18 149.82 97.84 137.6 93.73 133.53C82.57 122.09 82.89 103.85 94.44 92.8Z" id="c3MYEOCXci"></path></defs><g><g><g><use xlink:href="#b2ZENUspQ" opacity="1" fill="#46b814" fill-opacity="1"></use><g><use xlink:href="#b2ZENUspQ" opacity="1" fill-opacity="0" stroke="#000000" stroke-width="1" stroke-opacity="0"></use></g></g><g><use xlink:href="#c3MYEOCXci" opacity="1" fill="#000000" fill-opacity="0"></use><g><use xlink:href="#c3MYEOCXci" opacity="1" fill-opacity="0" stroke="#000000" stroke-width="1" stroke-opacity="0"></use></g></g></g></g></svg>