<svg xmlns="http://www.w3.org/2000/svg" xmlns:xlink="http://www.w3.org/1999/xlink" version="1.1" style="" xml:space="preserve" width="511.999" height="511.999"><rect id="backgroundrect" width="100%" height="100%" x="0" y="0" fill="none" stroke="none"/>

















<g class="currentLayer" style=""><title>Layer 1</title><path style="" d="M510.114,108.448l-17.531-17.531L147.697,383.758v52.045l17.531,17.531  c2.513,2.513,6.587,2.513,9.101,0l335.787-335.787C512.627,115.035,512.627,110.961,510.114,108.448z" id="svg_1" class="" fill-opacity="1" fill="#01b846"/><path style="" d="M451.232,58.665L169.778,340.119L60.767,231.108c-2.513-2.513-6.587-2.513-9.101,0L1.885,280.891  c-2.513,2.513-2.513,6.587,0,9.1l145.812,145.812L492.583,90.917l-32.251-32.251C457.819,56.152,453.745,56.152,451.232,58.665z" id="svg_2" class="" fill-opacity="1" fill="#01b846"/><g id="svg_3">
</g><g id="svg_4">
</g><g id="svg_5">
</g><g id="svg_6">
</g><g id="svg_7">
</g><g id="svg_8">
</g><g id="svg_9">
</g><g id="svg_10">
</g><g id="svg_11">
</g><g id="svg_12">
</g><g id="svg_13">
</g><g id="svg_14">
</g><g id="svg_15">
</g><g id="svg_16">
</g><g id="svg_17">
</g></g></svg>