<svg xmlns="http://www.w3.org/2000/svg" viewBox="0 0 380 120" width="380" height="120">
  <rect fill="#fff" width="380" height="120"/>
  <g fill="#000">
    <!-- EAN13 for Auchan: 6501122334458 -->
    <rect x="10" y="10" width="2" height="100"/>
    <rect x="14" y="10" width="2" height="100"/>
    <rect x="18" y="10" width="2" height="100"/>
    <rect x="26" y="10" width="2" height="100"/><rect x="30" y="10" width="4" height="100"/>
    <rect x="36" y="10" width="2" height="100"/><rect x="40" y="10" width="2" height="100"/>
    <rect x="44" y="10" width="2" height="100"/><rect x="48" y="10" width="2" height="100"/>
    <rect x="52" y="10" width="6" height="100"/><rect x="60" y="10" width="2" height="100"/>
    <rect x="64" y="10" width="4" height="100"/><rect x="70" y="10" width="2" height="100"/>
    <rect x="74" y="10" width="4" height="100"/><rect x="80" y="10" width="2" height="100"/>
    <rect x="84" y="10" width="4" height="100"/><rect x="90" y="10" width="2" height="100"/>
    <rect x="94" y="10" width="6" height="100"/><rect x="102" y="10" width="2" height="100"/>
    <rect x="106" y="10" width="2" height="100"/><rect x="110" y="10" width="4" height="100"/>
    <rect x="116" y="10" width="2" height="100"/><rect x="120" y="10" width="4" height="100"/>
    <rect x="126" y="10" width="2" height="100"/><rect x="130" y="10" width="6" height="100"/>
    <rect x="138" y="10" width="2" height="100"/><rect x="142" y="10" width="2" height="100"/>
    <rect x="150" y="10" width="2" height="100"/>
    <rect x="154" y="10" width="2" height="100"/>
    <rect x="158" y="10" width="2" height="100"/>
  </g>
  <text x="190" y="115" font-family="Space Grotesk, monospace" font-size="16" fill="#333">650 112 233 445 8</text>
</svg>