<svg xmlns="http://www.w3.org/2000/svg" viewBox="0 0 210 210" width="210" height="210">
  <rect fill="#fff" width="210" height="210"/>
  <g fill="#000">
    <!-- Simple QR-code-like pattern - static representation for HEALTH card -->
    <!-- Finder patterns (corners) -->
    <rect x="10" y="10" width="49" height="49"/>
    <rect x="14" y="14" width="41" height="41" fill="#fff"/>
    <rect x="20" y="20" width="29" height="29"/>
    <rect x="26" y="26" width="17" height="17" fill="#fff"/>
    <rect x="32" y="32" width="5" height="5"/>

    <rect x="151" y="10" width="49" height="49"/>
    <rect x="155" y="14" width="41" height="41" fill="#fff"/>
    <rect x="161" y="20" width="29" height="29"/>
    <rect x="167" y="26" width="17" height="17" fill="#fff"/>
    <rect x="173" y="32" width="5" height="5"/>

    <rect x="10" y="151" width="49" height="49"/>
    <rect x="14" y="155" width="41" height="41" fill="#fff"/>
    <rect x="20" y="161" width="29" height="29"/>
    <rect x="26" y="167" width="17" height="17" fill="#fff"/>
    <rect x="32" y="173" width="5" height="5"/>

    <!-- Data pattern (random squares to simulate QR) -->
    <rect x="70" y="10" width="4" height="8"/>
    <rect x="78" y="10" width="4" height="8"/>
    <rect x="86" y="10" width="4" height="8"/>
    <rect x="94" y="10" width="4" height="8"/>
    <rect x="102" y="10" width="4" height="8"/>
    <rect x="110" y="10" width="4" height="8"/>
    <rect x="118" y="10" width="4" height="8"/>
    <rect x="126" y="10" width="4" height="8"/>
    <rect x="134" y="10" width="4" height="8"/>
    <rect x="142" y="10" width="4" height="8"/>

    <rect x="70" y="30" width="4" height="8"/>
    <rect x="80" y="30" width="4" height="8"/>
    <rect x="88" y="30" width="4" height="8"/>
    <rect x="96" y="30" width="4" height="8"/>
    <rect x="104" y="30" width="4" height="8"/>
    <rect x="112" y="30" width="4" height="8"/>
    <rect x="120" y="30" width="4" height="8"/>
    <rect x="128" y="30" width="4" height="8"/>
    <rect x="136" y="30" width="4" height="8"/>
    <rect x="144" y="30" width="4" height="8"/>

    <rect x="70" y="50" width="4" height="8"/>
    <rect x="78" y="50" width="4" height="8"/>
    <rect x="86" y="50" width="4" height="8"/>
    <rect x="94" y="50" width="4" height="8"/>
    <rect x="102" y="50" width="4" height="8"/>
    <rect x="110" y="50" width="4" height="8"/>
    <rect x="118" y="50" width="4" height="8"/>
    <rect x="126" y="50" width="4" height="8"/>
    <rect x="134" y="50" width="4" height="8"/>
    <rect x="142" y="50" width="4" height="8"/>

    <rect x="70" y="70" width="4" height="8"/>
    <rect x="80" y="70" width="4" height="8"/>
    <rect x="88" y="70" width="4" height="8"/>
    <rect x="96" y="70" width="4" height="8"/>
    <rect x="104" y="70" width="4" height="8"/>
    <rect x="112" y="70" width="4" height="8"/>
    <rect x="120" y="70" width="4" height="8"/>
    <rect x="128" y="70" width="4" height="8"/>
    <rect x="136" y="70" width="4" height="8"/>
    <rect x="144" y="70" width="4" height="8"/>

    <rect x="70" y="90" width="4" height="8"/>
    <rect x="78" y="90" width="4" height="8"/>
    <rect x="86" y="90" width="4" height="8"/>
    <rect x="94" y="90" width="4" height="8"/>
    <rect x="102" y="90" width="4" height="8"/>
    <rect x="110" y="90" width="4" height="8"/>
    <rect x="118" y="90" width="4" height="8"/>
    <rect x="126" y="90" width="4" height="8"/>
    <rect x="134" y="90" width="4" height="8"/>
    <rect x="142" y="90" width="4" height="8"/>

    <rect x="70" y="110" width="4" height="8"/>
    <rect x="78" y="110" width="4" height="8"/>
    <rect x="86" y="110" width="4" height="8"/>
    <rect x="94" y="110" width="4" height="8"/>
    <rect x="102" y="110" width="4" height="8"/>
    <rect x="110" y="110" width="4" height="8"/>
    <rect x="118" y="110" width="4" height="8"/>
    <rect x="126" y="110" width="4" height="8"/>
    <rect x="134" y="110" width="4" height="8"/>
    <rect x="142" y="110" width="4" height="8"/>

    <rect x="70" y="130" width="4" height="8"/>
    <rect x="78" y="130" width="4" height="8"/>
    <rect x="86" y="130" width="4" height="8"/>
    <rect x="94" y="130" width="4" height="8"/>
    <rect x="102" y="130" width="4" height="8"/>
    <rect x="110" y="130" width="4" height="8"/>
    <rect x="118" y="130" width="4" height="8"/>
    <rect x="126" y="130" width="4" height="8"/>
    <rect x="134" y="130" width="4" height="8"/>
    <rect x="142" y="130" width="4" height="8"/>

    <rect x="70" y="150" width="4" height="8"/>
    <rect x="80" y="150" width="4" height="8"/>
    <rect x="88" y="150" width="4" height="8"/>
    <rect x="96" y="150" width="4" height="8"/>
    <rect x="104" y="150" width="4" height="8"/>
    <rect x="112" y="150" width="4" height="8"/>
    <rect x="120" y="150" width="4" height="8"/>
    <rect x="128" y="150" width="4" height="8"/>
    <rect x="136" y="150" width="4" height="8"/>
    <rect x="144" y="150" width="4" height="8"/>

    <rect x="70" y="170" width="4" height="8"/>
    <rect x="78" y="170" width="4" height="8"/>
    <rect x="86" y="170" width="4" height="8"/>
    <rect x="94" y="170" width="4" height="8"/>
    <rect x="102" y="170" width="4" height="8"/>
    <rect x="110" y="170" width="4" height="8"/>
    <rect x="118" y="170" width="4" height="8"/>
    <rect x="126" y="170" width="4" height="8"/>
    <rect x="134" y="170" width="4" height="8"/>
    <rect x="142" y="170" width="4" height="8"/>

    <rect x="70" y="190" width="4" height="8"/>
    <rect x="78" y="190" width="4" height="8"/>
    <rect x="86" y="190" width="4" height="8"/>
    <rect x="94" y="190" width="4" height="8"/>
    <rect x="102" y="190" width="4" height="8"/>
    <rect x="110" y="190" width="4" height="8"/>
    <rect x="118" y="190" width="4" height="8"/>
    <rect x="126" y="190" width="4" height="8"/>
    <rect x="134" y="190" width="4" height="8"/>
    <rect x="142" y="190" width="4" height="8"/>

    <rect x="70" y="10" width="6" height="2"/>
    <rect x="70" y="16" width="6" height="2"/>
    <rect x="70" y="22" width="6" height="2"/>
    <rect x="70" y="28" width="6" height="2"/>
  </g>
  <text x="105" y="205" font-family="Space Grotesk, monospace" font-size="16" fill="#333" text-anchor="middle">QR: HEALTH-7788</text>
</svg>