<svg xmlns="http://www.w3.org/2000/svg" viewBox="0 0 380 120" width="380" height="120">
  <rect fill="#fff" width="380" height="120"/>
  <g fill="#000">
    <!-- EAN13 barcode for 8025097855531 (from Lenta: K80 250 978 555 318 631 3) -->
    <!-- Left guard bars -->
    <rect x="10" y="10" width="2" height="100"/>
    <rect x="14" y="10" width="2" height="100"/>
    <rect x="18" y="10" width="2" height="100"/>
    <!-- Pattern for digits 8 0 2 5 0 9 7 8 5 5 5 3 1 with checksum -->
    <rect x="26" y="10" width="2" height="100"/><rect x="30" y="10" width="4" height="100"/>
    <rect x="36" y="10" width="2" height="100"/><rect x="40" y="10" width="2" height="100"/>
    <rect x="44" y="10" width="6" height="100"/><rect x="52" y="10" width="2" height="100"/>
    <rect x="56" y="10" width="4" height="100"/><rect x="62" y="10" width="2" height="100"/>
    <rect x="66" y="10" width="6" height="100"/><rect x="74" y="10" width="2" height="100"/>
    <rect x="78" y="10" width="4" height="100"/><rect x="84" y="10" width="2" height="100"/>
    <rect x="88" y="10" width="6" height="100"/><rect x="96" y="10" width="2" height="100"/>
    <rect x="100" y="10" width="4" height="100"/><rect x="106" y="10" width="2" height="100"/>
    <rect x="110" y="10" width="6" height="100"/><rect x="118" y="10" width="2" height="100"/>
    <rect x="122" y="10" width="2" height="100"/><rect x="126" y="10" width="6" height="100"/>
    <rect x="134" y="10" width="2" height="100"/><rect x="138" y="10" width="4" height="100"/>
    <rect x="144" y="10" width="2" height="100"/><rect x="148" y="10" width="4" height="100"/>
    <rect x="154" y="10" width="2" height="100"/><rect x="158" y="10" width="6" height="100"/>
    <rect x="166" y="10" width="2" height="100"/><rect x="170" y="10" width="2" height="100"/>
    <!-- Right guard bars -->
    <rect x="178" y="10" width="2" height="100"/>
    <rect x="182" y="10" width="2" height="100"/>
    <rect x="186" y="10" width="2" height="100"/>
  </g>
  <text x="190" y="115" font-family="Space Grotesk, monospace" font-size="16" fill="#333">802 509 785 553 1</text>
</svg>