<svg xmlns="http://www.w3.org/2000/svg" viewBox="0 0 380 120" width="380" height="120">
  <rect fill="#fff" width="380" height="120"/>
  <g fill="#000">
    <!-- CODE128 for М.Видео: 04397221 -->
    <!-- Simple variable-width bars pattern representing CODE128 -->
    <rect x="10" y="10" width="3" height="100"/>
    <rect x="15" y="10" width="1" height="100"/>
    <rect x="18" y="10" width="4" height="100"/>
    <rect x="24" y="10" width="2" height="100"/>
    <rect x="28" y="10" width="1" height="100"/>
    <rect x="31" y="10" width="3" height="100"/>
    <rect x="36" y="10" width="2" height="100"/>
    <rect x="40" y="10" width="1" height="100"/>
    <rect x="43" y="10" width="3" height="100"/>
    <rect x="48" y="10" width="2" height="100"/>
    <rect x="52" y="10" width="1" height="100"/>
    <rect x="55" y="10" width="3" height="100"/>
    <rect x="60" y="10" width="4" height="100"/>
    <rect x="66" y="10" width="2" height="100"/>
    <rect x="70" y="10" width="1" height="100"/>
    <rect x="73" y="10" width="3" height="100"/>
    <rect x="78" y="10" width="4" height="100"/>
    <rect x="84" y="10" width="2" height="100"/>
    <rect x="88" y="10" width="1" height="100"/>
    <rect x="91" y="10" width="4" height="100"/>
    <rect x="97" y="10" width="2" height="100"/>
    <rect x="101" y="10" width="1" height="100"/>
    <rect x="104" y="10" width="3" height="100"/>
    <rect x="109" y="10" width="2" height="100"/>
    <rect x="113" y="10" width="1" height="100"/>
    <rect x="116" y="10" width="3" height="100"/>
    <rect x="121" y="10" width="4" height="100"/>
    <rect x="127" y="10" width="2" height="100"/>
    <rect x="131" y="10" width="1" height="100"/>
    <rect x="134" y="10" width="3" height="100"/>
    <rect x="139" y="10" width="4" height="100"/>
    <rect x="145" y="10" width="2" height="100"/>
    <rect x="149" y="10" width="1" height="100"/>
    <rect x="152" y="10" width="3" height="100"/>
    <rect x="157" y="10" width="2" height="100"/>
    <rect x="161" y="10" width="1" height="100"/>
    <rect x="164" y="10" width="3" height="100"/>
    <rect x="169" y="10" width="2" height="100"/>
    <rect x="173" y="10" width="1" height="100"/>
    <rect x="176" y="10" width="4" height="100"/>
    <rect x="182" y="10" width="2" height="100"/>
    <rect x="186" y="10" width="1" height="100"/>
    <rect x="189" y="10" width="3" height="100"/>
    <rect x="194" y="10" width="4" height="100"/>
    <rect x="200" y="10" width="2" height="100"/>
    <rect x="204" y="10" width="1" height="100"/>
    <rect x="207" y="10" width="3" height="100"/>
    <rect x="212" y="10" width="2" height="100"/>
    <rect x="216" y="10" width="1" height="100"/>
    <rect x="219" y="10" width="3" height="100"/>
    <rect x="224" y="10" width="4" height="100"/>
    <rect x="230" y="10" width="2" height="100"/>
    <rect x="234" y="10" width="1" height="100"/>
    <rect x="237" y="10" width="3" height="100"/>
    <rect x="242" y="10" width="4" height="100"/>
    <rect x="248" y="10" width="2" height="100"/>
    <rect x="252" y="10" width="1" height="100"/>
    <rect x="255" y="10" width="3" height="100"/>
    <rect x="260" y="10" width="2" height="100"/>
    <rect x="264" y="10" width="1" height="100"/>
    <rect x="267" y="10" width="3" height="100"/>
    <rect x="272" y="10" width="2" height="100"/>
    <rect x="276" y="10" width="1" height="100"/>
    <rect x="279" y="10" width="3" height="100"/>
    <rect x="284" y="10" width="4" height="100"/>
    <rect x="290" y="10" width="2" height="100"/>
    <rect x="294" y="10" width="1" height="100"/>
    <rect x="297" y="10" width="3" height="100"/>
    <rect x="302" y="10" width="2" height="100"/>
    <rect x="306" y="10" width="1" height="100"/>
    <rect x="309" y="10" width="3" height="100"/>
    <rect x="314" y="10" width="4" height="100"/>
    <rect x="320" y="10" width="2" height="100"/>
    <rect x="324" y="10" width="1" height="100"/>
    <rect x="327" y="10" width="3" height="100"/>
    <rect x="332" y="10" width="2" height="100"/>
    <rect x="336" y="10" width="1" height="100"/>
    <rect x="339" y="10" width="3" height="100"/>
    <rect x="344" y="10" width="4" height="100"/>
    <rect x="350" y="10" width="2" height="100"/>
    <rect x="354" y="10" width="1" height="100"/>
    <rect x="357" y="10" width="3" height="100"/>
    <rect x="362" y="10" width="2" height="100"/>
    <rect x="366" y="10" width="1" height="100"/>
    <rect x="369" y="10" width="4" height="100"/>
    <rect x="375" y="10" width="2" height="100"/>
    <rect x="379" y="10" width="1" height="100"/>
  </g>
  <text x="190" y="115" font-family="Space Grotesk, monospace" font-size="16" fill="#333">04 397 221</text>
</svg>