<svg xmlns="http://www.w3.org/2000/svg" viewBox="0 0 380 120" width="380" height="120">
  <rect fill="#fff" width="380" height="120"/>
  <g fill="#000">
    <!-- EAN13 for O'KEY: 2443060228942 -->
    <rect x="10" y="10" width="2" height="100"/>
    <rect x="14" y="10" width="2" height="100"/>
    <rect x="18" y="10" width="2" height="100"/>
    <rect x="26" y="10" width="2" height="100"/><rect x="30" y="10" width="2" height="100"/>
    <rect x="34" y="10" width="6" height="100"/><rect x="42" y="10" width="2" height="100"/>
    <rect x="46" y="10" width="4" height="100"/><rect x="52" y="10" width="2" height="100"/>
    <rect x="56" y="10" width="4" height="100"/><rect x="62" y="10" width="2" height="100"/>
    <rect x="66" y="10" width="6" height="100"/><rect x="74" y="10" width="2" height="100"/>
    <rect x="78" y="10" width="4" height="100"/><rect x="84" y="10" width="2" height="100"/>
    <rect x="88" y="10" width="4" height="100"/><rect x="94" y="10" width="2" height="100"/>
    <rect x="98" y="10" width="6" height="100"/><rect x="106" y="10" width="2" height="100"/>
    <rect x="110" y="10" width="2" height="100"/><rect x="114" y="10" width="4" height="100"/>
    <rect x="120" y="10" width="2" height="100"/><rect x="124" y="10" width="4" height="100"/>
    <rect x="130" y="10" width="2" height="100"/><rect x="134" y="10" width="6" height="100"/>
    <rect x="142" y="10" width="2" height="100"/><rect x="146" y="10" width="2" height="100"/>
    <rect x="154" y="10" width="2" height="100"/>
    <rect x="158" y="10" width="2" height="100"/>
    <rect x="162" y="10" width="2" height="100"/>
  </g>
  <text x="190" y="115" font-family="Space Grotesk, monospace" font-size="16" fill="#333">2 443 060 228 942</text>
</svg>