<svg xmlns="http://www.w3.org/2000/svg" viewBox="0 0 380 120" width="380" height="120">
  <rect fill="#fff" width="380" height="120"/>
  <g fill="#000">
    <!-- EAN13 for X5: 1234567890128 -->
    <rect x="10" y="10" width="2" height="100"/>
    <rect x="14" y="10" width="2" height="100"/>
    <rect x="18" y="10" width="2" height="100"/>
    <rect x="26" y="10" width="2" height="100"/><rect x="30" y="10" width="2" height="100"/>
    <rect x="34" y="10" width="2" height="100"/><rect x="38" y="10" width="2" height="100"/>
    <rect x="42" y="10" width="2" height="100"/><rect x="46" y="10" width="2" height="100"/>
    <rect x="50" y="10" width="2" height="100"/><rect x="54" y="10" width="2" height="100"/>
    <rect x="58" y="10" width="2" height="100"/><rect x="62" y="10" width="2" height="100"/>
    <rect x="66" y="10" width="2" height="100"/><rect x="70" y="10" width="2" height="100"/>
    <rect x="74" y="10" width="2" height="100"/><rect x="78" y="10" width="2" height="100"/>
    <rect x="82" y="10" width="2" height="100"/><rect x="86" y="10" width="2" height="100"/>
    <rect x="90" y="10" width="2" height="100"/><rect x="94" y="10" width="2" height="100"/>
    <rect x="98" y="10" width="2" height="100"/><rect x="102" y="10" width="2" height="100"/>
    <rect x="106" y="10" width="2" height="100"/><rect x="110" y="10" width="2" height="100"/>
    <rect x="114" y="10" width="2" height="100"/><rect x="118" y="10" width="2" height="100"/>
    <rect x="122" y="10" width="2" height="100"/><rect x="126" y="10" width="2" height="100"/>
    <rect x="130" y="10" width="2" height="100"/><rect x="134" y="10" width="2" height="100"/>
    <rect x="138" y="10" width="2" height="100"/><rect x="142" y="10" width="2" height="100"/>
    <rect x="146" y="10" width="2" height="100"/><rect x="150" y="10" width="2" height="100"/>
    <rect x="154" y="10" width="2" height="100"/>
    <rect x="158" y="10" width="2" height="100"/>
    <rect x="162" y="10" width="2" height="100"/>
  </g>
  <text x="190" y="115" font-family="Space Grotesk, monospace" font-size="16" fill="#333">1 234 567 890 128</text>
</svg>