<svg xmlns="http://www.w3.org/2000/svg" viewBox="0 0 24 24" width="240" height="240">
	<style>
		tspan { white-space:pre }
		.shp0 { fill: #18da0f } 
	</style>
	<path id="Layer" fill-rule="evenodd" class="shp0" d="M12 1C13.44 1 14.87 1.29 16.21 1.84C17.54 2.39 18.75 3.2 19.77 4.23C20.8 5.25 21.61 6.46 22.16 7.79C22.71 9.13 23 10.56 23 12C23 16.45 20.32 20.46 16.21 22.16C12.1 23.87 7.37 22.92 4.22 19.78C1.08 16.63 0.13 11.9 1.84 7.79C3.54 3.68 7.55 1 12 1ZM12 21C13.18 21 14.35 20.76 15.44 20.31C16.53 19.86 17.53 19.2 18.36 18.36C19.2 17.53 19.86 16.53 20.31 15.44C20.76 14.35 21 13.18 21 12C21 8.36 18.81 5.08 15.44 3.69C12.08 2.29 8.21 3.06 5.64 5.64C3.06 8.21 2.29 12.08 3.69 15.44C5.08 18.81 8.36 21 12 21ZM10 16.5C10 17.11 9.63 17.65 9.07 17.89C8.51 18.12 7.87 17.99 7.44 17.56C7.01 17.13 6.88 16.49 7.11 15.93C7.35 15.37 7.89 15 8.5 15C8.7 15 8.89 15.04 9.07 15.11C9.26 15.19 9.42 15.3 9.56 15.44C9.7 15.58 9.81 15.74 9.89 15.93C9.96 16.11 10 16.3 10 16.5ZM14 6C14.53 6 15.05 6.1 15.53 6.3C16.02 6.51 16.46 6.8 16.83 7.17C17.2 7.54 17.49 7.98 17.7 8.47C17.9 8.95 18 9.47 18 10C18 11.62 17.03 13.08 15.53 13.7C14.04 14.31 12.32 13.97 11.17 12.83C10.03 11.68 9.69 9.96 10.3 8.47C10.92 6.97 12.38 6 14 6ZM14.77 11.85C15.01 11.75 15.23 11.6 15.41 11.41C15.6 11.23 15.75 11.01 15.85 10.77C15.95 10.52 16 10.26 16 10C16 9.19 15.51 8.46 14.77 8.15C14.02 7.84 13.16 8.01 12.59 8.59C12.01 9.16 11.84 10.02 12.15 10.77C12.46 11.51 13.19 12 14 12C14.26 12 14.52 11.95 14.77 11.85Z" />
</svg>