<?xml version="1.0" encoding="UTF-8" standalone="no"?>
<!DOCTYPE svg PUBLIC "-//W3C//DTD SVG 1.1//EN" "http://www.w3.org/Graphics/SVG/1.1/DTD/svg11.dtd">
<svg version="1.1" xmlns="http://www.w3.org/2000/svg" xmlns:xlink="http://www.w3.org/1999/xlink" preserveAspectRatio="xMidYMid meet" viewBox="0 0 640 640" width="64" height="64"><defs><path d="M321.33 632.29C497.33 632.29 640 491.45 640 317.73C639.79 144.09 497.24 3.37 321.33 3.17C145.34 3.17 2.67 144 2.67 317.73C2.67 491.45 145.34 632.29 321.33 632.29ZM321.33 60.36C465.33 60.36 582.06 175.58 582.06 317.73C581.89 459.8 465.26 574.93 321.33 575.1C177.33 575.1 60.6 459.87 60.6 317.73C60.6 175.58 177.33 60.36 321.33 60.36ZM176.49 446.41C176.49 422.72 195.94 403.52 219.94 403.52C243.94 403.52 263.4 422.72 263.4 446.41C263.4 470.1 243.94 489.31 219.94 489.31C195.94 489.31 176.49 470.1 176.49 446.41ZM379.27 374.92C443.27 374.92 495.15 323.71 495.15 260.54C495.15 197.36 443.27 146.15 379.27 146.15C315.27 146.15 263.4 197.36 263.4 260.54C263.4 323.71 315.27 374.92 379.27 374.92ZM379.27 203.34C411.27 203.34 437.22 228.95 437.22 260.54C437.22 292.12 411.27 317.73 379.27 317.73C347.28 317.73 321.33 292.12 321.33 260.54C321.33 228.95 347.28 203.34 379.27 203.34Z" id="b4IUbrRuod"></path><path d="M321.33 632.29C497.33 632.29 640 491.45 640 317.73C639.79 144.09 497.24 3.37 321.33 3.17C145.34 3.17 2.67 144 2.67 317.73C2.67 491.45 145.34 632.29 321.33 632.29ZM321.33 60.36C465.33 60.36 582.06 175.58 582.06 317.73C581.89 459.8 465.26 574.93 321.33 575.1C177.33 575.1 60.6 459.87 60.6 317.73C60.6 175.58 177.33 60.36 321.33 60.36ZM176.49 446.41C176.49 422.72 195.94 403.52 219.94 403.52C243.94 403.52 263.4 422.72 263.4 446.41C263.4 470.1 243.94 489.31 219.94 489.31C195.94 489.31 176.49 470.1 176.49 446.41ZM379.27 374.92C443.27 374.92 495.15 323.71 495.15 260.54C495.15 197.36 443.27 146.15 379.27 146.15C315.27 146.15 263.4 197.36 263.4 260.54C263.4 323.71 315.27 374.92 379.27 374.92ZM379.27 203.34C411.27 203.34 437.22 228.95 437.22 260.54C437.22 292.12 411.27 317.73 379.27 317.73C347.28 317.73 321.33 292.12 321.33 260.54C321.33 228.95 347.28 203.34 379.27 203.34Z" id="b1RhOVFhb4"></path></defs><g><g><g><use xlink:href="#b4IUbrRuod" opacity="1" fill="#46b814" fill-opacity="1"></use><g><use xlink:href="#b4IUbrRuod" opacity="1" fill-opacity="0" stroke="#000000" stroke-width="1" stroke-opacity="0"></use></g></g><g><use xlink:href="#b1RhOVFhb4" opacity="1" fill="#000000" fill-opacity="0"></use><g><use xlink:href="#b1RhOVFhb4" opacity="1" fill-opacity="0" stroke="#000000" stroke-width="1" stroke-opacity="0"></use></g></g></g></g></svg>